<svg width="1000" height="1000" viewBox="0 0 1000 1000" xmlns="http://www.w3.org/2000/svg" font-family="Helvetica Neue, Helvetica, Arial, sans-serif">
  <rect x="0" y="0" width="1000" height="1000" fill="#F4F5F7"/>
  <!-- header -->
  <rect x="0" y="0" width="1000" height="74" fill="#ffffff"/>
  <rect x="0" y="74" width="1000" height="1" fill="#E5E7EB"/>
  <text x="28" y="35" font-size="19" font-weight="700" fill="#111827">Executive Overview</text>
  <text x="28" y="57" font-size="12.5" font-weight="400" fill="#6B7280">Gaming Compliance &amp; Risk Intelligence Platform</text>
  <rect x="735" y="21" width="245" height="32" rx="16" fill="#FEF3C7" stroke="#F59E0B" stroke-width="1"/>
  <text x="857" y="41" text-anchor="middle" font-size="11.5" font-weight="600" fill="#92400E">DESIGN MOCKUP &#183; illustrative</text>
  <!-- slicers -->
  <text x="28" y="103" font-size="11.5" font-weight="600" fill="#6B7280">Filters</text>
  <g font-size="11.5" font-weight="400" fill="#374151">
    <rect x="82"  y="90" width="128" height="24" rx="12" fill="#EEF2FF" stroke="#C7D2FE"/><text x="146" y="106" text-anchor="middle">Fiscal Year: All</text>
    <rect x="220" y="90" width="104" height="24" rx="12" fill="#EEF2FF" stroke="#C7D2FE"/><text x="272" y="106" text-anchor="middle">Month: All</text>
    <rect x="334" y="90" width="112" height="24" rx="12" fill="#EEF2FF" stroke="#C7D2FE"/><text x="390" y="106" text-anchor="middle">Severity: All</text>
  </g>
  <!-- KPI cards (2 rows x 4) -->
  <g>
    <rect x="28"  y="128" width="232" height="90" rx="10" fill="#ffffff" stroke="#E5E7EB"/><rect x="272" y="128" width="232" height="90" rx="10" fill="#ffffff" stroke="#E5E7EB"/><rect x="516" y="128" width="232" height="90" rx="10" fill="#ffffff" stroke="#E5E7EB"/><rect x="760" y="128" width="232" height="90" rx="10" fill="#ffffff" stroke="#E5E7EB"/>
    <rect x="28"  y="230" width="232" height="90" rx="10" fill="#ffffff" stroke="#E5E7EB"/><rect x="272" y="230" width="232" height="90" rx="10" fill="#ffffff" stroke="#E5E7EB"/><rect x="516" y="230" width="232" height="90" rx="10" fill="#ffffff" stroke="#E5E7EB"/><rect x="760" y="230" width="232" height="90" rx="10" fill="#ffffff" stroke="#E5E7EB"/>
  </g>
  <g font-size="26" font-weight="700"><text x="48" y="180" fill="#2563EB">$66.9B</text><text x="292" y="180" fill="#2563EB">$2.62B</text><text x="536" y="180" fill="#111827">490K</text><text x="780" y="180" fill="#111827">1,240</text>
    <text x="48" y="282" fill="#111827">189</text><text x="292" y="282" fill="#EA580C">34%</text><text x="536" y="282" fill="#111827">57</text><text x="780" y="282" fill="#16A34A">92%</text></g>
  <g font-size="11.5" font-weight="400" fill="#6B7280"><text x="48" y="204">Total Wagers</text><text x="292" y="204">Total GGR</text><text x="536" y="204">Active Accounts</text><text x="780" y="204">AML Alerts</text>
    <text x="48" y="306">STRs Submitted</text><text x="292" y="306">Escalation Rate</text><text x="536" y="306">Open Investigations</text><text x="780" y="306">SLA Compliance</text></g>

  <!-- chart A: GGR trend line -->
  <rect x="28" y="340" width="468" height="300" rx="10" fill="#ffffff" stroke="#E5E7EB"/>
  <text x="48" y="368" font-size="13.5" font-weight="600" fill="#111827">GGR trend (monthly, $M)</text>
  <line x1="60" y1="600" x2="470" y2="600" stroke="#E5E7EB"/><line x1="60" y1="392" x2="60" y2="600" stroke="#E5E7EB"/>
  <polyline points="60,585 94,578 128,565 162,560 196,545 230,520 264,500 298,470 332,455 366,430 400,415 470,400" fill="none" stroke="#2563EB" stroke-width="2.5"/>
  <polyline points="60,585 94,578 128,565 162,560 196,545 230,520 264,500 298,470 332,455 366,430 400,415 470,400 470,600 60,600" fill="#2563EB" fill-opacity="0.08" stroke="none"/>
  <text x="60" y="618" font-size="10.5" fill="#9CA3AF">FY23</text><text x="440" y="618" font-size="10.5" fill="#9CA3AF">FY26</text>

  <!-- chart B: AML alerts by month bars -->
  <rect x="512" y="340" width="480" height="300" rx="10" fill="#ffffff" stroke="#E5E7EB"/>
  <text x="532" y="368" font-size="13.5" font-weight="600" fill="#111827">AML alerts by month</text>
  <line x1="544" y1="600" x2="972" y2="600" stroke="#E5E7EB"/>
  <g fill="#60A5FA">
    <rect x="552" y="540" width="26" height="60"/><rect x="588" y="520" width="26" height="80"/><rect x="624" y="548" width="26" height="52"/><rect x="660" y="500" width="26" height="100"/><rect x="696" y="512" width="26" height="88"/><rect x="732" y="470" width="26" height="130"/><rect x="768" y="486" width="26" height="114"/><rect x="804" y="452" width="26" height="148"/><rect x="840" y="500" width="26" height="100"/><rect x="876" y="464" width="26" height="136"/><rect x="912" y="440" width="26" height="160"/><rect x="948" y="474" width="18" height="126"/>
  </g>

  <!-- chart C: STR case funnel -->
  <rect x="28" y="656" width="468" height="300" rx="10" fill="#ffffff" stroke="#E5E7EB"/>
  <text x="48" y="684" font-size="13.5" font-weight="600" fill="#111827">STR case funnel (New &#8594; Closed)</text>
  <g>
    <rect x="80" y="704" width="360" height="34" rx="4" fill="#93C5FD"/><text x="90" y="726" font-size="12" fill="#1E3A8A">New</text><text x="430" y="726" font-size="12" font-weight="600" fill="#1E3A8A" text-anchor="end">1,240</text>
    <rect x="120" y="746" width="280" height="34" rx="4" fill="#60A5FA"/><text x="130" y="768" font-size="12" fill="#ffffff">Under Review</text><text x="390" y="768" font-size="12" font-weight="600" fill="#ffffff" text-anchor="end">690</text>
    <rect x="150" y="788" width="220" height="34" rx="4" fill="#3B82F6"/><text x="160" y="810" font-size="12" fill="#ffffff">Escalated</text><text x="360" y="810" font-size="12" font-weight="600" fill="#ffffff" text-anchor="end">420</text>
    <rect x="175" y="830" width="170" height="34" rx="4" fill="#2563EB"/><text x="185" y="852" font-size="12" fill="#ffffff">STR Submitted</text><text x="335" y="852" font-size="12" font-weight="600" fill="#ffffff" text-anchor="end">189</text>
    <rect x="195" y="872" width="130" height="34" rx="4" fill="#1D4ED8"/><text x="205" y="894" font-size="12" fill="#ffffff">Closed</text><text x="315" y="894" font-size="12" font-weight="600" fill="#ffffff" text-anchor="end">305</text>
  </g>

  <!-- chart D: hold % gauge -->
  <rect x="512" y="656" width="480" height="300" rx="10" fill="#ffffff" stroke="#E5E7EB"/>
  <text x="532" y="684" font-size="13.5" font-weight="600" fill="#111827">Hold % (GGR / wagers)</text>
  <path d="M632 850 A120 120 0 0 1 872 850" fill="none" stroke="#E5E7EB" stroke-width="20" stroke-linecap="round"/>
  <path d="M632 850 A120 120 0 0 1 700 745" fill="none" stroke="#16A34A" stroke-width="20" stroke-linecap="round"/>
  <text x="752" y="838" text-anchor="middle" font-size="42" font-weight="700" fill="#16A34A">3.9%</text>
  <text x="752" y="866" text-anchor="middle" font-size="12" fill="#6B7280">stable ~4% target</text>

  <text x="28" y="984" font-size="11" font-weight="400" fill="#9CA3AF">Illustrative mockup of the planned Power BI page — not a live dashboard. Figures illustrative. Spec: documentation/dashboard_specification.md</text>
</svg>
