<svg width="1000" height="1000" viewBox="0 0 1000 1000" xmlns="http://www.w3.org/2000/svg" font-family="Helvetica Neue, Helvetica, Arial, sans-serif">
  <rect x="0" y="0" width="1000" height="1000" fill="#F4F5F7"/>
  <rect x="0" y="0" width="1000" height="74" fill="#ffffff"/><rect x="0" y="74" width="1000" height="1" fill="#E5E7EB"/>
  <text x="28" y="35" font-size="19" font-weight="700" fill="#111827">AML Monitoring</text>
  <text x="28" y="57" font-size="12.5" font-weight="400" fill="#6B7280">Gaming Compliance &amp; Risk Intelligence Platform</text>
  <rect x="735" y="21" width="245" height="32" rx="16" fill="#FEF3C7" stroke="#F59E0B" stroke-width="1"/>
  <text x="857" y="41" text-anchor="middle" font-size="11.5" font-weight="600" fill="#92400E">DESIGN MOCKUP &#183; illustrative</text>
  <text x="28" y="103" font-size="11.5" font-weight="600" fill="#6B7280">Filters</text>
  <g font-size="11.5" fill="#374151">
    <rect x="82" y="90" width="96" height="24" rx="12" fill="#EEF2FF" stroke="#C7D2FE"/><text x="130" y="106" text-anchor="middle">Rule: All</text>
    <rect x="188" y="90" width="112" height="24" rx="12" fill="#EEF2FF" stroke="#C7D2FE"/><text x="244" y="106" text-anchor="middle">Severity: All</text>
    <rect x="310" y="90" width="150" height="24" rx="12" fill="#EEF2FF" stroke="#C7D2FE"/><text x="385" y="106" text-anchor="middle">Payment Format: All</text>
  </g>
  <!-- KPI cards -->
  <g><rect x="28" y="128" width="232" height="90" rx="10" fill="#fff" stroke="#E5E7EB"/><rect x="272" y="128" width="232" height="90" rx="10" fill="#fff" stroke="#E5E7EB"/><rect x="516" y="128" width="232" height="90" rx="10" fill="#fff" stroke="#E5E7EB"/><rect x="760" y="128" width="232" height="90" rx="10" fill="#fff" stroke="#E5E7EB"/>
    <rect x="28" y="230" width="232" height="90" rx="10" fill="#fff" stroke="#E5E7EB"/><rect x="272" y="230" width="232" height="90" rx="10" fill="#fff" stroke="#E5E7EB"/><rect x="516" y="230" width="232" height="90" rx="10" fill="#fff" stroke="#E5E7EB"/><rect x="760" y="230" width="232" height="90" rx="10" fill="#fff" stroke="#E5E7EB"/></g>
  <g font-size="26" font-weight="700"><text x="48" y="180" fill="#2563EB">1,240</text><text x="292" y="180" fill="#EA580C">420</text><text x="536" y="180" fill="#EA580C">34%</text><text x="780" y="180" fill="#111827">63</text>
    <text x="48" y="282" fill="#111827">48</text><text x="292" y="282" fill="#DC2626">71</text><text x="536" y="282" fill="#DC2626">12</text><text x="780" y="282" fill="#111827">11</text></g>
  <g font-size="11.5" fill="#6B7280"><text x="48" y="204">Total Alerts</text><text x="292" y="204">Escalated Alerts</text><text x="536" y="204">Escalation Rate</text><text x="780" y="204">Avg Risk Score</text>
    <text x="48" y="306">High-Risk Accounts</text><text x="292" y="306">Critical Alerts</text><text x="536" y="306">Sanctions Hits</text><text x="780" y="306">Rules Firing</text></g>

  <!-- A: alerts by rule (horizontal bars) -->
  <rect x="28" y="340" width="468" height="300" rx="10" fill="#fff" stroke="#E5E7EB"/>
  <text x="48" y="368" font-size="13.5" font-weight="600" fill="#111827">Alerts by rule (top typologies)</text>
  <g font-size="11" fill="#374151">
    <text x="48" y="398">R01 Large txn</text><rect x="150" y="388" width="300" height="14" rx="3" fill="#3B82F6"/><text x="460" y="399" text-anchor="end" fill="#6B7280">312</text>
    <text x="48" y="424">R02 Structuring</text><rect x="150" y="414" width="245" height="14" rx="3" fill="#3B82F6"/><text x="460" y="425" text-anchor="end" fill="#6B7280">248</text>
    <text x="48" y="450">R06 High-risk pay</text><rect x="150" y="440" width="200" height="14" rx="3" fill="#3B82F6"/><text x="460" y="451" text-anchor="end" fill="#6B7280">176</text>
    <text x="48" y="476">R04 Velocity</text><rect x="150" y="466" width="150" height="14" rx="3" fill="#3B82F6"/><text x="460" y="477" text-anchor="end" fill="#6B7280">121</text>
    <text x="48" y="502">R03 Rapid move</text><rect x="150" y="492" width="120" height="14" rx="3" fill="#3B82F6"/><text x="460" y="503" text-anchor="end" fill="#6B7280">98</text>
    <text x="48" y="528">R10 Concentration</text><rect x="150" y="518" width="88" height="14" rx="3" fill="#3B82F6"/><text x="460" y="529" text-anchor="end" fill="#6B7280">72</text>
    <text x="48" y="554">R11 Sanctions</text><rect x="150" y="544" width="16" height="14" rx="3" fill="#DC2626"/><text x="460" y="555" text-anchor="end" fill="#6B7280">12</text>
  </g>
  <text x="48" y="590" font-size="10.5" fill="#9CA3AF">Each rule is an explainable SQL view — see sql/aml_rules/</text>

  <!-- B: alerts by severity (stacked columns by month) -->
  <rect x="512" y="340" width="480" height="300" rx="10" fill="#fff" stroke="#E5E7EB"/>
  <text x="532" y="368" font-size="13.5" font-weight="600" fill="#111827">Alerts by severity (monthly)</text>
  <line x1="544" y1="600" x2="972" y2="600" stroke="#E5E7EB"/>
  <g>
    <rect x="556" y="560" width="40" height="40" fill="#16A34A"/><rect x="556" y="536" width="40" height="24" fill="#CA8A04"/><rect x="556" y="518" width="40" height="18" fill="#EA580C"/><rect x="556" y="510" width="40" height="8" fill="#DC2626"/>
    <rect x="612" y="552" width="40" height="48" fill="#16A34A"/><rect x="612" y="524" width="40" height="28" fill="#CA8A04"/><rect x="612" y="506" width="40" height="18" fill="#EA580C"/><rect x="612" y="498" width="40" height="8" fill="#DC2626"/>
    <rect x="668" y="544" width="40" height="56" fill="#16A34A"/><rect x="668" y="512" width="40" height="32" fill="#CA8A04"/><rect x="668" y="492" width="40" height="20" fill="#EA580C"/><rect x="668" y="482" width="40" height="10" fill="#DC2626"/>
    <rect x="724" y="536" width="40" height="64" fill="#16A34A"/><rect x="724" y="500" width="40" height="36" fill="#CA8A04"/><rect x="724" y="478" width="40" height="22" fill="#EA580C"/><rect x="724" y="468" width="40" height="10" fill="#DC2626"/>
    <rect x="780" y="524" width="40" height="76" fill="#16A34A"/><rect x="780" y="486" width="40" height="38" fill="#CA8A04"/><rect x="780" y="462" width="40" height="24" fill="#EA580C"/><rect x="780" y="450" width="40" height="12" fill="#DC2626"/>
    <rect x="836" y="512" width="40" height="88" fill="#16A34A"/><rect x="836" y="470" width="40" height="42" fill="#CA8A04"/><rect x="836" y="446" width="40" height="24" fill="#EA580C"/><rect x="836" y="434" width="40" height="12" fill="#DC2626"/>
    <rect x="892" y="500" width="40" height="100" fill="#16A34A"/><rect x="892" y="456" width="40" height="44" fill="#CA8A04"/><rect x="892" y="430" width="40" height="26" fill="#EA580C"/><rect x="892" y="416" width="40" height="14" fill="#DC2626"/>
  </g>
  <g font-size="10.5" fill="#6B7280"><rect x="556" y="612" width="10" height="10" fill="#16A34A"/><text x="570" y="621">Low</text><rect x="606" y="612" width="10" height="10" fill="#CA8A04"/><text x="620" y="621">Med</text><rect x="660" y="612" width="10" height="10" fill="#EA580C"/><text x="674" y="621">High</text><rect x="716" y="612" width="10" height="10" fill="#DC2626"/><text x="730" y="621">Critical</text></g>

  <!-- C: risk score distribution histogram -->
  <rect x="28" y="656" width="468" height="300" rx="10" fill="#fff" stroke="#E5E7EB"/>
  <text x="48" y="684" font-size="13.5" font-weight="600" fill="#111827">Risk score distribution</text>
  <line x1="60" y1="916" x2="470" y2="916" stroke="#E5E7EB"/>
  <g fill="#6366F1">
    <rect x="66" y="866" width="34" height="50"/><rect x="104" y="836" width="34" height="80"/><rect x="142" y="800" width="34" height="116"/><rect x="180" y="770" width="34" height="146"/><rect x="218" y="790" width="34" height="126"/><rect x="256" y="820" width="34" height="96"/><rect x="294" y="844" width="34" height="72"/><rect x="332" y="810" width="34" height="106"/><rect x="370" y="852" width="34" height="64"/><rect x="408" y="876" width="34" height="40"/><rect x="446" y="890" width="18" height="26"/>
  </g>
  <text x="60" y="934" font-size="10.5" fill="#9CA3AF">0</text><text x="450" y="934" font-size="10.5" fill="#9CA3AF">100</text>
  <line x1="380" y1="700" x2="380" y2="916" stroke="#EA580C" stroke-width="1.5" stroke-dasharray="4 3"/><text x="386" y="712" font-size="10.5" fill="#EA580C">escalate &#8805; 70</text>

  <!-- D: top accounts by alert count -->
  <rect x="512" y="656" width="480" height="300" rx="10" fill="#fff" stroke="#E5E7EB"/>
  <text x="532" y="684" font-size="13.5" font-weight="600" fill="#111827">Top accounts by alert count</text>
  <g font-size="11" fill="#374151">
    <text x="532" y="716">ACC-1207</text><rect x="620" y="706" width="330" height="14" rx="3" fill="#F59E0B"/><text x="962" y="717" text-anchor="end" fill="#6B7280">31</text>
    <text x="532" y="742">ACC-1042</text><rect x="620" y="732" width="288" height="14" rx="3" fill="#F59E0B"/><text x="962" y="743" text-anchor="end" fill="#6B7280">27</text>
    <text x="532" y="768">ACC-1188</text><rect x="620" y="758" width="245" height="14" rx="3" fill="#F59E0B"/><text x="962" y="769" text-anchor="end" fill="#6B7280">23</text>
    <text x="532" y="794">ACC-1099</text><rect x="620" y="784" width="210" height="14" rx="3" fill="#F59E0B"/><text x="962" y="795" text-anchor="end" fill="#6B7280">19</text>
    <text x="532" y="820">ACC-1315</text><rect x="620" y="810" width="170" height="14" rx="3" fill="#F59E0B"/><text x="962" y="821" text-anchor="end" fill="#6B7280">16</text>
    <text x="532" y="846">ACC-1276</text><rect x="620" y="836" width="140" height="14" rx="3" fill="#F59E0B"/><text x="962" y="847" text-anchor="end" fill="#6B7280">13</text>
    <text x="532" y="872">ACC-1051</text><rect x="620" y="862" width="110" height="14" rx="3" fill="#F59E0B"/><text x="962" y="873" text-anchor="end" fill="#6B7280">11</text>
  </g>
  <text x="532" y="908" font-size="10.5" fill="#9CA3AF">Drill-through &#8594; account detail (all alerts + transactions)</text>

  <text x="28" y="984" font-size="11" fill="#9CA3AF">Illustrative mockup of the planned Power BI page — not a live dashboard. Figures illustrative. Spec: documentation/dashboard_specification.md</text>
</svg>
