<svg width="1000" height="1000" viewBox="0 0 1000 1000" xmlns="http://www.w3.org/2000/svg" font-family="Helvetica Neue, Helvetica, Arial, sans-serif">
  <rect x="0" y="0" width="1000" height="1000" fill="#F4F5F7"/>
  <rect x="0" y="0" width="1000" height="74" fill="#ffffff"/><rect x="0" y="74" width="1000" height="1" fill="#E5E7EB"/>
  <text x="28" y="35" font-size="19" font-weight="700" fill="#111827">STR Workflow</text>
  <text x="28" y="57" font-size="12.5" fill="#6B7280">Gaming Compliance &amp; Risk Intelligence Platform</text>
  <rect x="735" y="21" width="245" height="32" rx="16" fill="#FEF3C7" stroke="#F59E0B" stroke-width="1"/>
  <text x="857" y="41" text-anchor="middle" font-size="11.5" font-weight="600" fill="#92400E">DESIGN MOCKUP &#183; illustrative</text>
  <text x="28" y="103" font-size="11.5" font-weight="600" fill="#6B7280">Filters</text>
  <g font-size="11.5" fill="#374151">
    <rect x="82" y="90" width="96" height="24" rx="12" fill="#EEF2FF" stroke="#C7D2FE"/><text x="130" y="106" text-anchor="middle">Status: All</text>
    <rect x="188" y="90" width="104" height="24" rx="12" fill="#EEF2FF" stroke="#C7D2FE"/><text x="240" y="106" text-anchor="middle">Analyst: All</text>
    <rect x="302" y="90" width="108" height="24" rx="12" fill="#EEF2FF" stroke="#C7D2FE"/><text x="356" y="106" text-anchor="middle">Priority: All</text>
  </g>
  <g><rect x="28" y="128" width="232" height="90" rx="10" fill="#fff" stroke="#E5E7EB"/><rect x="272" y="128" width="232" height="90" rx="10" fill="#fff" stroke="#E5E7EB"/><rect x="516" y="128" width="232" height="90" rx="10" fill="#fff" stroke="#E5E7EB"/><rect x="760" y="128" width="232" height="90" rx="10" fill="#fff" stroke="#E5E7EB"/>
    <rect x="28" y="230" width="232" height="90" rx="10" fill="#fff" stroke="#E5E7EB"/><rect x="272" y="230" width="232" height="90" rx="10" fill="#fff" stroke="#E5E7EB"/><rect x="516" y="230" width="232" height="90" rx="10" fill="#fff" stroke="#E5E7EB"/><rect x="760" y="230" width="232" height="90" rx="10" fill="#fff" stroke="#E5E7EB"/></g>
  <g font-size="26" font-weight="700"><text x="48" y="180" fill="#2563EB">362</text><text x="292" y="180" fill="#EA580C">57</text><text x="536" y="180" fill="#111827">189</text><text x="780" y="180" fill="#111827">52%</text>
    <text x="48" y="282" fill="#111827">11.4</text><text x="292" y="282" fill="#16A34A">92%</text><text x="536" y="282" fill="#DC2626">14</text><text x="780" y="282" fill="#EA580C">41d</text></g>
  <g font-size="11.5" fill="#6B7280"><text x="48" y="204">Total Cases</text><text x="292" y="204">Open Backlog</text><text x="536" y="204">STRs Filed</text><text x="780" y="204">STR Conversion</text>
    <text x="48" y="306">Avg Investigation Days</text><text x="292" y="306">SLA Compliance</text><text x="536" y="306">SLA Breaches</text><text x="780" y="306">Oldest Open Case</text></g>

  <!-- A: cases by status column New->Closed -->
  <rect x="28" y="340" width="468" height="300" rx="10" fill="#fff" stroke="#E5E7EB"/>
  <text x="48" y="368" font-size="13.5" font-weight="600" fill="#111827">Cases by status (New &#8594; Closed)</text>
  <line x1="60" y1="600" x2="470" y2="600" stroke="#E5E7EB"/>
  <g fill="#3B82F6">
    <rect x="82" y="410" width="60" height="190"/><rect x="164" y="452" width="60" height="148"/><rect x="246" y="486" width="60" height="114"/><rect x="328" y="524" width="60" height="76"/><rect x="410" y="470" width="60" height="130"/>
  </g>
  <g font-size="10.5" fill="#374151" text-anchor="middle"><text x="112" y="618">New</text><text x="194" y="618">Review</text><text x="276" y="618">Escal.</text><text x="358" y="618">STR Sub</text><text x="440" y="618">Closed</text></g>
  <g font-size="11" font-weight="600" fill="#1E3A8A" text-anchor="middle"><text x="112" y="402">1,240</text><text x="194" y="444">690</text><text x="276" y="478">420</text><text x="358" y="516">189</text><text x="440" y="462">305</text></g>

  <!-- B: analyst workload clustered bars -->
  <rect x="512" y="340" width="480" height="300" rx="10" fill="#fff" stroke="#E5E7EB"/>
  <text x="532" y="368" font-size="13.5" font-weight="600" fill="#111827">Analyst workload</text>
  <line x1="544" y1="600" x2="972" y2="600" stroke="#E5E7EB"/>
  <g>
    <rect x="556" y="470" width="16" height="130" fill="#3B82F6"/><rect x="574" y="540" width="16" height="60" fill="#93C5FD"/><rect x="592" y="560" width="16" height="40" fill="#1D4ED8"/>
    <rect x="628" y="490" width="16" height="110" fill="#3B82F6"/><rect x="646" y="552" width="16" height="48" fill="#93C5FD"/><rect x="664" y="568" width="16" height="32" fill="#1D4ED8"/>
    <rect x="700" y="452" width="16" height="148" fill="#3B82F6"/><rect x="718" y="530" width="16" height="70" fill="#93C5FD"/><rect x="736" y="556" width="16" height="44" fill="#1D4ED8"/>
    <rect x="772" y="500" width="16" height="100" fill="#3B82F6"/><rect x="790" y="558" width="16" height="42" fill="#93C5FD"/><rect x="808" y="572" width="16" height="28" fill="#1D4ED8"/>
    <rect x="844" y="480" width="16" height="120" fill="#3B82F6"/><rect x="862" y="544" width="16" height="56" fill="#93C5FD"/><rect x="880" y="564" width="16" height="36" fill="#1D4ED8"/>
    <rect x="916" y="512" width="16" height="88" fill="#3B82F6"/><rect x="934" y="562" width="16" height="38" fill="#93C5FD"/><rect x="952" y="576" width="16" height="24" fill="#1D4ED8"/>
  </g>
  <g font-size="10.5" fill="#6B7280"><rect x="556" y="612" width="10" height="10" fill="#3B82F6"/><text x="570" y="621">Total</text><rect x="614" y="612" width="10" height="10" fill="#93C5FD"/><text x="628" y="621">Open</text><rect x="668" y="612" width="10" height="10" fill="#1D4ED8"/><text x="682" y="621">STRs</text></g>

  <!-- C: case aging buckets -->
  <rect x="28" y="656" width="468" height="300" rx="10" fill="#fff" stroke="#E5E7EB"/>
  <text x="48" y="684" font-size="13.5" font-weight="600" fill="#111827">Open case aging</text>
  <line x1="60" y1="916" x2="470" y2="916" stroke="#E5E7EB"/>
  <g>
    <rect x="90" y="756" width="70" height="160" fill="#16A34A"/><rect x="192" y="800" width="70" height="116" fill="#CA8A04"/><rect x="294" y="850" width="70" height="66" fill="#EA580C"/><rect x="396" y="884" width="70" height="32" fill="#DC2626"/>
  </g>
  <g font-size="10.5" fill="#374151" text-anchor="middle"><text x="125" y="934">0-7 d</text><text x="227" y="934">8-14 d</text><text x="329" y="934">15-30 d</text><text x="431" y="934">30+ d</text></g>
  <g font-size="12" font-weight="600" fill="#111827" text-anchor="middle"><text x="125" y="748">24</text><text x="227" y="792">18</text><text x="329" y="842">10</text><text x="431" y="876">5</text></g>

  <!-- D: SLA compliance donut -->
  <rect x="512" y="656" width="480" height="300" rx="10" fill="#fff" stroke="#E5E7EB"/>
  <text x="532" y="684" font-size="13.5" font-weight="600" fill="#111827">SLA compliance (resolved cases)</text>
  <g transform="translate(672,820)">
    <circle r="80" fill="none" stroke="#16A34A" stroke-width="26" stroke-dasharray="462 503" transform="rotate(-90)"/>
    <circle r="80" fill="none" stroke="#DC2626" stroke-width="26" stroke-dasharray="40 503" stroke-dashoffset="-462" transform="rotate(-90)"/>
    <text x="0" y="-4" text-anchor="middle" font-size="34" font-weight="700" fill="#16A34A">92%</text>
    <text x="0" y="20" text-anchor="middle" font-size="11.5" fill="#6B7280">within SLA</text>
  </g>
  <g font-size="11" fill="#6B7280"><rect x="820" y="792" width="12" height="12" fill="#16A34A"/><text x="838" y="802">Within SLA — 92%</text><rect x="820" y="822" width="12" height="12" fill="#DC2626"/><text x="838" y="832">Breached — 8%</text></g>

  <text x="28" y="984" font-size="11" fill="#9CA3AF">Illustrative mockup of the planned Power BI page — not a live dashboard. Figures illustrative. Spec: documentation/dashboard_specification.md</text>
</svg>
